<mxfile host="65bd71144e" modified="2021-02-08T22:43:22.013Z" agent="5.0 (X11; Linux x86_64) AppleWebKit/537.36 (KHTML, like Gecko) Code/1.52.1 Chrome/83.0.4103.122 Electron/9.3.5 Safari/537.36" etag="UQeh16wOdfVSzX1Gn0AZ" version="13.10.0" type="embed">
    <diagram id="tA3UQMCyfdoMeJVHr3ai" name="PÃ¡gina-1">
        <mxGraphModel dx="765" dy="602" grid="1" gridSize="10" guides="1" tooltips="1" connect="1" arrows="1" fold="1" page="1" pageScale="1" pageWidth="827" pageHeight="1169" math="0" shadow="0">
            <root>
                <mxCell id="0"/>
                <mxCell id="1" parent="0"/>
                <mxCell id="10" value="&lt;font style=&quot;font-size: 14px&quot;&gt;Express Route Controller&lt;/font&gt;" style="rounded=1;whiteSpace=wrap;html=1;fillColor=#60a917;strokeColor=#2D7600;fontColor=#ffffff;" parent="1" vertex="1">
                    <mxGeometry x="160" y="240" width="520" height="80" as="geometry"/>
                </mxCell>
                <mxCell id="11" value="&lt;font style=&quot;font-size: 14px&quot;&gt;Services Class&lt;/font&gt;" style="rounded=1;whiteSpace=wrap;html=1;fillColor=#60a917;strokeColor=#2D7600;fontColor=#ffffff;" parent="1" vertex="1">
                    <mxGeometry x="160" y="400" width="520" height="80" as="geometry"/>
                </mxCell>
                <mxCell id="12" value="&lt;font style=&quot;font-size: 14px&quot;&gt;Data Access Layer&lt;/font&gt;" style="rounded=1;whiteSpace=wrap;html=1;fillColor=#60a917;strokeColor=#2D7600;fontColor=#ffffff;" parent="1" vertex="1">
                    <mxGeometry x="160" y="560" width="520" height="80" as="geometry"/>
                </mxCell>
                <mxCell id="14" value="" style="endArrow=classic;html=1;fillColor=#60a917;strokeColor=#2D7600;entryX=0.152;entryY=0;entryDx=0;entryDy=0;entryPerimeter=0;" parent="1" target="12" edge="1">
                    <mxGeometry width="50" height="50" relative="1" as="geometry">
                        <mxPoint x="240" y="483" as="sourcePoint"/>
                        <mxPoint x="240" y="550" as="targetPoint"/>
                    </mxGeometry>
                </mxCell>
                <mxCell id="16" value="" style="endArrow=classic;html=1;entryX=0.846;entryY=0.988;entryDx=0;entryDy=0;entryPerimeter=0;fillColor=#60a917;strokeColor=#2D7600;" parent="1" target="11" edge="1">
                    <mxGeometry width="50" height="50" relative="1" as="geometry">
                        <mxPoint x="600" y="560" as="sourcePoint"/>
                        <mxPoint x="600.8" y="520.28" as="targetPoint"/>
                        <Array as="points">
                            <mxPoint x="600" y="550"/>
                        </Array>
                    </mxGeometry>
                </mxCell>
                <mxCell id="37" value="" style="endArrow=classic;html=1;entryX=0.846;entryY=0.988;entryDx=0;entryDy=0;entryPerimeter=0;fillColor=#60a917;strokeColor=#2D7600;" parent="1" edge="1">
                    <mxGeometry width="50" height="50" relative="1" as="geometry">
                        <mxPoint x="600.08" y="400.96000000000004" as="sourcePoint"/>
                        <mxPoint x="600.0000000000001" y="320" as="targetPoint"/>
                        <Array as="points">
                            <mxPoint x="600.08" y="390.96000000000004"/>
                        </Array>
                    </mxGeometry>
                </mxCell>
                <mxCell id="38" value="" style="endArrow=classic;html=1;fillColor=#60a917;strokeColor=#2D7600;entryX=0.152;entryY=0;entryDx=0;entryDy=0;entryPerimeter=0;" parent="1" edge="1">
                    <mxGeometry width="50" height="50" relative="1" as="geometry">
                        <mxPoint x="240.96" y="323" as="sourcePoint"/>
                        <mxPoint x="239.99999999999997" y="400" as="targetPoint"/>
                    </mxGeometry>
                </mxCell>
            </root>
        </mxGraphModel>
    </diagram>
</mxfile>
